/* XPM */
static char *result[] = {
/* columns rows colors chars-per-pixel */
"64 64 11 1 ",
"  c #204610",
". c #2C613D",
"X c #CF2F2F",
"o c #F36A07",
"O c #ED6262",
"+ c #45930A",
"@ c #74D65F",
"# c #F3DC07",
"$ c #F36BDA",
"% c #CBE4C6",
"& c #F9FEF8",
/* pixels */
"@@@@@@@@@@@@@@@@@@@@@@@@@@@@@@@@@@@@@@@@@@@@@@@@@@@@@@@@@@@@@@@@",
"@@@@@@@@@@@@@@@@@@@@@@@@@@@@@@@@@@@@@@@@@@@@@@@@@@@@@@@@@@@@@@@@",
"@@@@@@@@@@@@@@@@@@@@@@@@@@@@@@@@@@@@@@@@@@@@@@@@@@@@@@@@@@@@@@@@",
"@@@@@@@@@@@@@@@@@@@@@@@@@@@@@@@@@@@@@@@@@@@@@@@@@@@@@@@@@@@@@@@@",
"@@@@@@@@@@@@@@@@@@@@@@@@@@@@@@@@@@@@@@@@@@@@@@@@@@@@@@@@@@@@@@@@",
"@@@@@@@@@@@@@@@@@@@@@@@@@@@@@@@@@@@@@@@@@@@@@@@@@@@@@@@@@@@@@@@@",
"@@@@@@@@@@@@@@@@@@@@@@@@@@@@@@@@@@@@@@@@@@@@@@@@@@@@@@@@@@@@@@@@",
"@@@@@@@@@@@@@@@@@@@@@@@@@@@@@@@@@@@@@@@@@@@@@@@@@@@@@@@@@@@@@@@@",
"@@@@@@@@@@@@@@@@@@@@@@@@@@@@@@@@@@@@@@@@@@@@@@@@@@@@@@@@@@@@@@@@",
"@@@@@@@@@@@@@@@@@@@@@@@@@@@@@@@@@@@@@@@@@@@@@@@@@@@@@@@@@@@@@@@@",
"@@@@@@@@@@@@@@@@@@@@@@@@@@@@@@@@@@@@@@@@@@@@@@@@@@@@@@@@@@@@@@@@",
"@@@@@@@@@@@@@@@@@@@@@@@@@@@@@@@@@@@@@@@@@@@@@@@@@@@@@@@@@@@@@@@@",
"@@@@@@@@@@@@@@@@@@@@@@@@@@@@@@@@@@@@@@@@@@@@@@@@@@@@@@@@@@@@@@@@",
"@@@@@@@@@@@@@@@@@@@@@@@@@@@@@@@@@@@@@@@@@@@@@@@@@@@@@@@@@@@@@@@@",
"@@@@@@@@@@@@@@@@@@@@@@@@@@@@@@@@@@@@@@@@@@@@@@@@@@@@@@@@@@@@@@@@",
"@@@@@@@@@@@@@@@@@@@@@@@@@@@@@@@@@@@@@@@@@@@@@@@@@@@@@@@@@@@@@@@@",
"@@@@@@@@@%@@@@@@@@@@@@@@%@@@@@@@@@@@@@@%@@@@@@@@@@@@@@@@@@@@@@@@",
"@@@@@@@@%&%@@@@@@@@@@@@%&%@@@@@@@@@@@@%&%@@@@@@@@@@@@%@@@@@@@@@@",
"@@@@@@@%&&&%@@@@@@@@@@%&&&%@@@@@@@@@@%&&&%@@@@@@@@@@%&%@@@@@@@@@",
"@@@@@@%&&&&&%@@@@@@@@%&&&&&%@@@@@@@@%&&&&&%@@@@@@@@%&&&%@@@@@@@@",
"@@@@@%&&&&&&&%@@@@@@%&&&&&&&%@@@@@@%&&&&&&&%@@@@@@%&&&&&%@@@@@@@",
"@@@@%&&&&&&&&%@@@@@%&&&&&&&&%@@@@@%&&&&&&&&%@@@@@%&&&&&&&%@@@@@@",
"@@@@%&&&&&&&&%@@@@@%&&&&&&&&%@@@@@%&&&&&&&&%@@@@@%&&&&&&&&%@@@@@",
"@@@@%&&&&&&&&%@@@@@%&&&&&&&&%@@@@@%&&&&&&&&%@@@@@%&&&&&&&&%@@@@@",
"@@@@%&&&&&&&&%@@@@@%&&&&&&&&%@@@@@%&&&&&&&&%@@@@@%&&&&&&&&%@@@@@",
"@@@@%&&&&&&&&%@@@@@%&&&&&&&&%@@@@@%&&&&&&&&%@@@@@%&&&&&&&&%@@@@@",
"@@@@%&&&&&&&&%@@@@@%&&&&&&&&%@@@@@%&&&&&&&&%@@@@@%&&&&&&&&%@@@@@",
"@@@@%&&&&&&&&%@@@@@%&&&&&&&&%@@@@@%&&&&&&&&%@@@@@%&&&&&&&&%@@@@@",
"@@@@%&&&&&&&&%@@@@@%&&&&&&&&%@@@@@%&&&&&&&&%@@@@@%&&&&&&&&%@@@@@",
"@@@@%&&&&&&&&%@@@@@%&&&&&&&&%@@@@@%&&&&&&&&%@@@@@%&&&&&&&&%@@@@@",
"&&&&%&&&&&&&&%&&&&&%&&&&&&&&%&&&&&%&&&&&&&&%&&&&&%&&&&&&&&%&&&&&",
"@@@@%&&&&&&&&%@@@@@%&&&&&&&&%@@@@@%&&&&&&&&%@@@@@%&&&&&&&&%@@@@@",
"@@@@%&&&&&&&&%@@@@@%&&&&&&&&%@@@@@%&&&&&&&&%@@@@@%&&&&&&&&%@@@@@",
"@@@@%&&&&&&&&%@@@@@%&&&&&&&&%@@@@@%&&&&&&&&%@@@@@%&&&&&&&&%@@@@@",
"@@@@%&&&&&&&&%@@@@@%&&&&&&&&%@@@@@%&&&&&&&&%@@@@@%&&&&&&&&%@@@@@",
"@@@@%&&&&&&&&%@@@@@%&&&&&&&&%@@@@@%&&&&&&&&%@@@@@%&&&&&&&&%@@@@@",
"@@@@%&&&&&&&&%@@@@@%&&&&&&&&%@@@@@%&&&&&&&&%@@@@@%&&&&&&&&%@@@@@",
"@@@@%&&&&&&&&%@@@@@%&&&&&&&&%@@@@@%&&&&&&&&%@@@@@%&&&&&&&&%@@@@@",
"@@@@%&&&&&&&&%@@@@@%&&&&&&&&%@@@@@%&&&&&&&&%@@@@@%&&&&&&&&%@@@@@",
"@@@@%&&&&&&&&%@@@@@%&&&&&&&&%@@@@@%&&&&&&&&%@@@@@%&&&&&&&&%@@@@@",
"@@@@%&&&&&&&&%@@@@@%&&&&&&&&%@@@@@%&&&&&&&&%@@@@@%&&&&&&&&%@@@@@",
"@@@@%&&&&&&&&%@@@@@%&&&&&&&&%@@@@@%&&&&&&&&%@@@@@%&&&&&&&&%@@@@@",
"@@@@%&&&&&&&&%@@@@@%&&&&&&&&%@@@@@%&&&&&&&&%@@@@@%&&&&&&&&%@@@@@",
"@@@@%&&&&&&&&%@@@@@%&&&&&&&&%@@@@@%&&&&&&&&%@@@@@%&&&&&&&&%@@@@@",
"@@@@%&&&&&&&&%@@@@@%&&&&&&&&%@@@@@%&&&&&&&&%@@@@@%&&&&&&&&%@@@@@",
"@@@@%&&&&&&&&%@@@@X%&&&&&&&&%@@@@@%&&&&&&&&%@@@@@%&&&&&&&&%@@@@@",
"&&&&%&&&&&&&&%&&.X#X&&&&&&&&%&&&&&%&&&&&&&&%&&&&&%&&&&&&&&%&&&&&",
"@@@@%&&&&&&&&%@...X..&  &&o&%@@@@@%&&&&&&&&%@@@..%&&&o&&&&%@@@@@",
"@@@@%&&&&&&&&%......     o&o%@@#@@%&&&   &&%@.....&&o#o&&&%@@@@@",
"@@@@%&&&&&&&&..X...  X    o ++#X#@%&&&    &....#...++o+++&$@@@@@",
"@@@@%%%%%%%%..X#X.  X#X     +++#++%%   O    ..#X#...+++++$#$@@@@",
"@@@@@@@@@@@@...X..   X     +$++++++   O#O   ...#....++++++$+@@@@",
"@@@@@@@@@@@@.....         +$#$+++++    O    .......  ++++++++@@@",
"@@@@@@@@@@@@@....         ++$++++++          ......  ++++++++@@@",
"@@@@@@@@@@@@@@@@@@@@@@@@@@@@@@@@@@@@@@@@@@@@@@@@@@@@@@@@@@@@@@@@",
"@@@@@@@@@@@@@@@@@@@@@@@@@@@@@@@@@@@@@@@@@@@@@@@@@@@@@@@@@@@@@@@@",
"@@@@@@@@@@@@@@@@@@@@@@@@@@@@@@@@@@@@@@@@@@@@@@@@@@@@@@@@@@@@@@@@",
"@@@@@@@@@@@@@@@@@@@@@@@@@@@@@@@@@@@@@@@@@@@@@@@@@@@@@@@@@@@@@@@@",
"@@@@@@@@@@@@@@@@@@@@@@@@@@@@@@@@@@@@@@@@@@@@@@@@@@@@@@@@@@@@@@@@",
"@@@@@@@@@@@@@@@@@@@@@@@@@@@@@@@@@@@@@@@@@@@@@@@@@@@@@@@@@@@@@@@@",
"@@@@@@@@@@@@@@@@@@@@@@@@@@@@@@@@@@@@@@@@@@@@@@@@@@@@@@@@@@@@@@@@",
"@@@@@@@@@@@@@@@@@@@@@@@@@@@@@@@@@@@@@@@@@@@@@@@@@@@@@@@@@@@@@@@@",
"@@@@@@@@@@@@@@@@@@@@@@@@@@@@@@@@@@@@@@@@@@@@@@@@@@@@@@@@@@@@@@@@",
"@@@@@@@@@@@@@@@@@@@@@@@@@@@@@@@@@@@@@@@@@@@@@@@@@@@@@@@@@@@@@@@@"
};
