/* XPM */
static char *result[] = {
/* columns rows colors chars-per-pixel */
"64 64 3 1 ",
"  c black",
". c #393ADE",
"X c None",
/* pixels */
"XXXXXXXXXXXXXXXXXXXXXXXXXX            XXXXXXXXXXXXXXXXXXXXXXXXXX",
"XXXXXXXXXXXXXXXXXXXXXX    ............    XXXXXXXXXXXXXXXXXXXXXX",
"XXXXXXXXXXXXXXXXXXX   ....................   XXXXXXXXXXXXXXXXXXX",
"XXXXXXXXXXXXXXXXX  ..........................  XXXXXXXXXXXXXXXXX",
"XXXXXXXXXXXXXXX  ..............................  XXXXXXXXXXXXXXX",
"XXXXXXXXXXXXXX .................................. XXXXXXXXXXXXXX",
"XXXXXXXXXXXXX .................................... XXXXXXXXXXXXX",
"XXXXXXXXXXX  ......................................  XXXXXXXXXXX",
"XXXXXXXXXX .......................................... XXXXXXXXXX",
"XXXXXXXXX ............................................ XXXXXXXXX",
"XXXXXXXX .............................................. XXXXXXXX",
"XXXXXXX ................................................ XXXXXXX",
"XXXXXXX ................................................ XXXXXXX",
"XXXXXX .................................................. XXXXXX",
"XXXXX .................................................... XXXXX",
"XXXX ...................................................... XXXX",
"XXXX ...................................................... XXXX",
"XXX ........................................................ XXX",
"XXX ........................................................ XXX",
"XX .......................................  ................. XX",
"XX .......................................  ................. XX",
"XX .......................................  ................. XX",
"X ........................................  .................. X",
"X ......      ............................   ................. X",
"X .....         ...   .....................  ................. X",
"X .....  ....   ...   ....  ..  ...........  ................. X",
" .....   .....  ....   ..   ..  ...                  .......... ",
" ..     ......   ....  .    .......                  .......... ",
" ..       ....   ....  .  ..................  ................. ",
" ....            ....     ....  ............  ................. ",
" ....  ..      .......   .....  ............   ................ ",
" ....  ...............   .....  .............  ................ ",
" ....  ..............    .....  .............  ................ ",
" ....  .............     .....  .............  ................ ",
" ....  ............   .    ...  .............  ................ ",
" ....  ..........    ...   ...  .............   ............... ",
" ....   .......     ....   ...  ..............   .............. ",
"X ....   ..  ..   ............  ...............  ............. X",
"X .....      ..  .............  ...............   ............ X",
"X ......     .................  ................  ............ X",
"X ............................................................ X",
"XX .......................................................... XX",
"XX .......................................................... XX",
"XX .......................................................... XX",
"XXX ........................................................ XXX",
"XXX ........................................................ XXX",
"XXXX ...................................................... XXXX",
"XXXX ...................................................... XXXX",
"XXXXX .................................................... XXXXX",
"XXXXXX .................................................. XXXXXX",
"XXXXXXX ................................................ XXXXXXX",
"XXXXXXX ................................................ XXXXXXX",
"XXXXXXXX .............................................. XXXXXXXX",
"XXXXXXXXX ............................................ XXXXXXXXX",
"XXXXXXXXXX .......................................... XXXXXXXXXX",
"XXXXXXXXXXX  ......................................  XXXXXXXXXXX",
"XXXXXXXXXXXXX .................................... XXXXXXXXXXXXX",
"XXXXXXXXXXXXXX .................................. XXXXXXXXXXXXXX",
"XXXXXXXXXXXXXXX  ..............................  XXXXXXXXXXXXXXX",
"XXXXXXXXXXXXXXXXX  ..........................  XXXXXXXXXXXXXXXXX",
"XXXXXXXXXXXXXXXXXXX   ....................   XXXXXXXXXXXXXXXXXXX",
"XXXXXXXXXXXXXXXXXXXXXX    ............    XXXXXXXXXXXXXXXXXXXXXX",
"XXXXXXXXXXXXXXXXXXXXXXXXXX            XXXXXXXXXXXXXXXXXXXXXXXXXX",
"XXXXXXXXXXXXXXXXXXXXXXXXXXXXXXXXXXXXXXXXXXXXXXXXXXXXXXXXXXXXXXXX"
};
