/* XPM */
static char *result[] = {
/* columns rows colors chars-per-pixel */
"64 64 7 1 ",
"  c black",
". c #0E0D0D",
"X c #C63737",
"o c #934242",
"O c #3D75A6",
"+ c #91C4D5",
"@ c None",
/* pixels */
"@@@@@@@@@@@@@@@@@@..                     ...@@@@@@....  ..@@@@@@",
"@@@@@@@@@@@@@@@   .  XXXXXXXXXXXXXXXXXXX   ..@@@@..   X  ..@@@@@",
"@@@@@@@@@@@@@   XXXXXXXXXXXXXXXXXXXXXXXXXXX  ....  XXXXXX ..@@@@",
"@@@@@@@@@@@@. XXXXXXXXXXXXXXXXXXXXXXXXXXXXXXo     XXXXXXXX ..@@@",
"@@@@@@@@@@@   XXXXXXXXXXXXXXXXXXXXXXXXXXXXXXXXXX  XXXXXXXXX..@@@",
"@@@@@@@@@@  XXXXXXXXXXXXXXXXXXXXXXXXXXXXXXXXXXXXX XXXXXXXXX .@@@",
"@@@@@@@@@@ XXXXXXXXXXXXXXXXXXXXXXXXXXXXXXXXXXXXXXXXXXXXXXXX .@@@",
"@@@@@@@@@. XXX           ..   .....XXXXXXXXXXXXXX XXXXXXXXX .@@@",
"@@@@@@@@@ XXX .......................XXXXXXXXXXXX  XXXXXXX ..@@@",
"@@@@@@@@. XX +++++++++++++++++++++  ...XXXXXXXXXXX   XXXX ...@@@",
"@@@@@@@@.   ++++++++++++++++++++++++ ....XXXXXXXXXXX.  .  ..@@@@",
"@@@@@@@@...+++++++++++++++++++++++++++......XXXXXXXXXXXXX. @@@@@",
"@@@@@@@.. ++++++++++++++++++++++++++++++......XXXXXXXXXXXX..@@@@",
"@@@@@@@. ++++++++++++++++++++++++++++++++++......XXXXXXXXXX..@@@",
"@@@@@@.. +++++++++++++++++++++++++++++++++++++.....XXXXXXXX..@@@",
"@@@@@@..++++++++++++++++++++++++++++++++++++++++.....XXXXXX..@@@",
"@@@@@@. ++++++++++++++++++++++++++++++++++++++++++.....XXXX .@@@",
"@@@@@@. ++++++++++++++++++++++++++++++++++++++++++++....XXX.@@@@",
"@@@@@..+++++++++++++++++++++++++++++++++++++++++++++++..XX.@@@@@",
"@@@@@. ++++++++++      ++++++++++++++++++      ++++++++.. .@@@@@",
"@@@@@. +++++++++        ++++++++++++++++        ++++++++...@@@@@",
"@@@@@. +++++++++        ++++++++++++++++        +++++++++ .@@@@@",
"@@@@@. +++++++++        ++++++++++++++++        +++++++++ .@@@@@",
"@@@@@. +++++++++        ++++++++++++++++        +++++++++ .@@@@@",
"@@@@@. +++++++++        ++++++++++++++++        +++++++++ .@@@@@",
"@@@@@. +++++++++        ++++++++++++++++        +++++++++ .@@@@@",
"@@@@@. +++++++++        ++++........++++        +++++++++ .@@@@@",
"@@@@@. +++++++++        ++++........++++        +++++++++ .@@@@@",
"@@@@@. +++++++++        ++++........++++        +++++++++ .@@@@@",
"@@@@@. +++++++++        +++++......+++++        +++++++++ .@@@@@",
"@@@@@. +++++++++        ++++++++++++++++        +++++++++ .@@@@@",
"@@@@@. ++++++++++      ++++++++++++++++++      ++++++++++ .@@@@@",
"@@@@@. ++++++++++++++++++++++++++++++++++++++++++++++++++ .@@@@@",
"@@@@@. ++++++++++++++++++++++++++++++++++++++++++++++++++ .@@@@@",
"@@@@@. ++++++++++++++++++++++++++++++++++++++++++++++++++ .@@@@@",
"@@@@@. ++++++++++++++++++++++++++++++++++++++++++++++++++ .@@@@@",
"@@@@@. ++++++++++++++++++++++++++++++++++++++++++++++++++ .@@@@@",
"@@@@@. ++++++++++++++++++++++++++++++++++++++++++++++++++ .@@@@@",
"@@@@@. ++++++++++++++++++++++++++++++++++++++++++++++++++ .@@@@@",
"@@@@@..++++++++++++++++++++++++++++++++++++++++++++++++++..@@@@@",
"@@@@@..++++++++++++++++++++++++++++++++++++++++++++++++++..@@@@@",
"@@@@@.OOOO++++++++++++++++++++++++++++++++++++++++++++OOOO.@@@@@",
"@@@@..OOOOOO++++++++++++++++++++++++++++++++++++++++OOOOOO..@@@@",
"@@@..OOOOOOOO++++++++++++++++++++++++++++++++++++++OOOOOOOO..@@@",
"@@@ OOOOOOOOOO++++++++++++++++++++++++++++++++++++OOOOOOOOOO @@@",
"@@@.OOOOOOOOOOO++++++++++++++++++++++++++++++++++OOOOOOOOOOO.@@@",
"@@@.OOOOOOOOOOO++++++++++++++++++++++++++++++++++OOOOOOOOOOO.@@@",
"@@@.OOOOOOOOOOOO++++++++++++++++++++++++++++++++OOOOOOOOOOOO.@@@",
"@@@..OOOOOOOOOOO++++++++++++++++++++++++++++++++OOOOOOOOOOO..@@@",
"@@@@.OOOOOOOOOOOO++++++++++++++++++++++++++++++OOOOOOOOOOOO.@@@@",
"@@@@.OOOOOOOOOOOOO++++++++++++++++++++++++++++OOOOOOOOOOOOO.@@@@",
"@@@@..OOOOOOOOOOOO++++++++++++++++++++++++++++OOOOOOOOOOOO..@@@@",
"@@@@@.OOOOOOOOOOOOO++++++++++++++++++++++++++OOOOOOOOOOOOO.@@@@@",
"@@@@@.OOOOOOOOOOOOOO++++++++++++++++++++++++OOOOOOOOOOOOOO.@@@@@",
"@@@@@@.OOOOOOOOOOOOOO++++++++++++++++++++++OOOOOOOOOOOOOO.@@@@@@",
"@@@@@@.OOOOOOOOOOOOOO++++++++++++++++++++++OOOOOOOOOOOOOO.@@@@@@",
"@@@@@@@.OOOOOOOOOOOOOO++++++++++++++++++++OOOOOOOOOOOOOO.@@@@@@@",
"@@@@@@@..OOOOOOOOOOOOOO++++++++++++++++++OOOOOOOOOOOOOO..@@@@@@@",
"@@@@@@@@.OOOOOOOOOOOOOO++++++++++++++++++OOOOOOOOOOOOOO.@@@@@@@@",
"@@@@@@@@..OOOOOOOOOOOOOO++++++++++++++++OOOOOOOOOOOOOO..@@@@@@@@",
"@@@@@@@@@..OOOOOOOOOOOOO++++++++++++++++OOOOOOOOOOOOO..@@@@@@@@@",
"@@@@@@@@@@..OOOOOOOOOOOO++++++++++++++++OOOOOOOOOOOO..@@@@@@@@@@",
"@@@@@@@@@@..OOOOOOOOOOOO++++++++++++++++OOOOOOOOOOOO..@@@@@@@@@@",
"@@@@@@@@@@@.                                        .@@@@@@@@@@@"
};
